<?xml version="1.0" encoding="UTF-8" standalone="no"?>
<svg
   xmlns:dc="http://purl.org/dc/elements/1.1/"
   xmlns:cc="http://creativecommons.org/ns#"
   xmlns:rdf="http://www.w3.org/1999/02/22-rdf-syntax-ns#"
   xmlns:svg="http://www.w3.org/2000/svg"
   xmlns="http://www.w3.org/2000/svg"
   width="48"
   height="48"
   viewBox="0 0 12.7 12.7"
   version="1.1"
   id="svg8">
  <defs
     id="defs2" />
  <metadata
     id="metadata5">
    <rdf:RDF>
      <cc:Work
         rdf:about="">
        <dc:format>image/svg+xml</dc:format>
        <dc:type
           rdf:resource="http://purl.org/dc/dcmitype/StillImage" />
        <dc:title></dc:title>
      </cc:Work>
    </rdf:RDF>
  </metadata>
  <g
     id="layer1">
    <path
       id="path12"
       style="fill:#ffffff;fill-opacity:1;fill-rule:evenodd;stroke-width:0.999999"
       d="M 24 4 A 19.999999 19.999999 0 0 0 4 24 A 19.999999 19.999999 0 0 0 24 44 A 19.999999 19.999999 0 0 0 44 24 A 19.999999 19.999999 0 0 0 24 4 z M 24 7.1992188 A 16.799999 16.799999 0 0 1 40.800781 24 A 16.799999 16.799999 0 0 1 24 40.800781 A 16.799999 16.799999 0 0 1 7.1992188 24 A 16.799999 16.799999 0 0 1 24 7.1992188 z "
       transform="scale(0.26458333)" />
    <rect
       style="mix-blend-mode:normal;fill:#ffffff;fill-opacity:1;stroke:none;stroke-opacity:0"
       id="rect851"
       width="0.84666669"
       height="4.0216665"
       x="5.9266667"
       y="2.7516668"
       ry="0.42333335" />
    <rect
       style="fill:#ffffff;fill-opacity:1;stroke:none;stroke-width:0.242545;stroke-opacity:0"
       id="rect853"
       width="2.1166666"
       height="0.8466664"
       x="6.8791666"
       y="5.9266667"
       ry="5.0023436e-07" />
    <path
       style="fill:#ffffff;fill-opacity:1;stroke:none;stroke-width:0.264583;stroke-opacity:0"
       id="path857"
       d="M 9.4191667,6.3499999 A 0.42333335,0.42333335 0 0 1 8.9998078,6.7733146 0.42333335,0.42333335 0 0 1 8.5725747,6.3579483 0.42333335,0.42333335 0 0 1 8.9839117,5.9268345 0.42333335,0.42333335 0 0 1 9.4188683,6.3341059" />
    <path
       style="fill:#ffffff;fill-opacity:1;stroke:none;stroke-width:0.264583px;stroke-linecap:butt;stroke-linejoin:miter;stroke-opacity:1"
       d="m 6.8791665,6.3499998 c 0,0.4233333 -0.3175,0.4233333 -0.3175,0.4233333 0,0 0.1058333,0 0.3174999,0 z"
       id="path888" />
  </g>
</svg>
