<?xml version="1.0" encoding="UTF-8" standalone="no"?>
<svg
   xmlns:dc="http://purl.org/dc/elements/1.1/"
   xmlns:cc="http://creativecommons.org/ns#"
   xmlns:rdf="http://www.w3.org/1999/02/22-rdf-syntax-ns#"
   xmlns:svg="http://www.w3.org/2000/svg"
   xmlns="http://www.w3.org/2000/svg"
   xmlns:sodipodi="http://sodipodi.sourceforge.net/DTD/sodipodi-0.dtd"
   xmlns:inkscape="http://www.inkscape.org/namespaces/inkscape"
   width="48"
   height="48"
   viewBox="0 0 12.7 12.7"
   version="1.1"
   id="svg8"
   sodipodi:docname="dollar.svg"
   inkscape:version="1.0.1 (c497b03c, 2020-09-10)">
  <defs
     id="defs2">
    <rect
       x="12.7"
       y="12.7"
       width="12.7"
       height="12.7"
       id="rect2819" />
    <rect
       x="0"
       y="0"
       width="12.7"
       height="12.7"
       id="rect873" />
  </defs>
  <sodipodi:namedview
     id="base"
     pagecolor="#4a4a55"
     bordercolor="#666666"
     borderopacity="1.0"
     inkscape:pageopacity="0"
     inkscape:pageshadow="2"
     inkscape:zoom="17.31"
     inkscape:cx="17.953191"
     inkscape:cy="22.85315"
     inkscape:document-units="mm"
     inkscape:current-layer="layer1"
     inkscape:document-rotation="0"
     showgrid="true"
     units="px"
     inkscape:snap-global="true"
     inkscape:snap-page="true"
     inkscape:window-width="2560"
     inkscape:window-height="1080"
     inkscape:window-x="0"
     inkscape:window-y="0"
     inkscape:window-maximized="0">
    <inkscape:grid
       type="xygrid"
       id="grid833"
       spacingx="0.21166667"
       spacingy="0.21166667"
       color="#000000"
       opacity="0.1254902"
       empcolor="#030000"
       empopacity="0.25098039" />
  </sodipodi:namedview>
  <metadata
     id="metadata5">
    <rdf:RDF>
      <cc:Work
         rdf:about="">
        <dc:format>image/svg+xml</dc:format>
        <dc:type
           rdf:resource="http://purl.org/dc/dcmitype/StillImage" />
        <dc:title></dc:title>
      </cc:Work>
    </rdf:RDF>
  </metadata>
  <g
     inkscape:label="Ebene 1"
     inkscape:groupmode="layer"
     id="layer1">
    <text
       xml:space="preserve"
       id="text2817"
       style="fill:black;fill-opacity:1;line-height:1.25;stroke:none;font-family:sans-serif;font-style:normal;font-weight:normal;font-size:10.58333333000000032px;white-space:pre;shape-inside:url(#rect2819);" />
    <path
       style="fill:#eeffff;fill-opacity:1;stroke:none;stroke-width:0.305514px;stroke-linecap:butt;stroke-linejoin:miter;stroke-opacity:1"
       d="m 6.3500001,10.583332 c -3.7041669,0 -3.7041669,-2.4190483 -3.7041669,-2.4190483 0,0 1.2347209,0 1.2347209,0 0,0 0,-1.2095238 0,0 0,1.2095262 2.469446,1.2095262 2.469446,1.2095262 0,0 -2.469446,0 0,0 2.469446,0 2.469446,-1.2095262 2.469446,-1.2095262 0,0 0,1.2095262 0,0 0,-1.2095238 -2.469446,-1.2095238 -2.469446,-1.2095238 0,0 3.7041669,0 0,0 -3.7041669,0 -3.7041669,-2.4190454 -3.7041669,-2.4190454 0,0 0,2.4190454 0,0 0,-2.4190478 3.7041669,-2.4190478 3.7041669,-2.4190478 0,0 -3.7041669,0 0,0 3.7041669,0 3.7041669,2.4190478 3.7041669,2.4190478 H 8.8194461 c 0,0 0,1.2095234 0,0 0,-1.2095239 -2.469446,-1.2095239 -2.469446,-1.2095239 0,0 2.469446,0 0,0 -2.469446,0 -2.469446,1.2095239 -2.469446,1.2095239 0,0 0,-1.2095239 0,0 0,1.2095234 2.469446,1.2095234 2.469446,1.2095234 0,0 -3.7041669,0 0,0 3.7041669,0 3.7041669,2.4190458 3.7041669,2.4190458 0,0 0,-2.4190458 0,0 0,2.4190483 -3.7041669,2.4190483 -3.7041669,2.4190483 z"
       id="path2875" />
    <path
       style="fill:none;stroke:none;stroke-width:0.26458300000000001px;stroke-linecap:butt;stroke-linejoin:miter;stroke-opacity:1"
       d="m 5.7149999,10.371667 c 0,1.27 0,1.27 0,1.27 h 1.27 v -1.27 z"
       id="path893" />
    <rect
       style="fill:#eeffff;fill-opacity:1;stroke:none;stroke-width:0.465"
       id="rect897"
       width="1.27"
       height="1.6933334"
       x="5.7150002"
       y="10.371667" />
    <rect
       style="fill:#eeffff;fill-opacity:1;stroke:none;stroke-width:0.465"
       id="rect897-2"
       width="1.2700001"
       height="1.6933334"
       x="5.7150002"
       y="0.63499999" />
  </g>
</svg>
