<?xml version="1.0" encoding="UTF-8" standalone="no"?>
<svg
   xmlns:dc="http://purl.org/dc/elements/1.1/"
   xmlns:cc="http://creativecommons.org/ns#"
   xmlns:rdf="http://www.w3.org/1999/02/22-rdf-syntax-ns#"
   xmlns:svg="http://www.w3.org/2000/svg"
   xmlns="http://www.w3.org/2000/svg"
   xmlns:sodipodi="http://sodipodi.sourceforge.net/DTD/sodipodi-0.dtd"
   xmlns:inkscape="http://www.inkscape.org/namespaces/inkscape"
   width="48"
   height="48"
   viewBox="0 0 12.7 12.7"
   version="1.1"
   id="svg8"
   sodipodi:docname="water.svg"
   inkscape:version="1.0.1 (c497b03c, 2020-09-10)">
  <defs
     id="defs2" />
  <sodipodi:namedview
     id="base"
     pagecolor="#4a4a5a"
     bordercolor="#666666"
     borderopacity="1.0"
     inkscape:pageopacity="0"
     inkscape:pageshadow="2"
     inkscape:zoom="14.020833"
     inkscape:cx="24"
     inkscape:cy="23.93237"
     inkscape:document-units="mm"
     inkscape:current-layer="layer1"
     inkscape:document-rotation="0"
     showgrid="true"
     units="px"
     inkscape:window-width="1248"
     inkscape:window-height="943"
     inkscape:window-x="557"
     inkscape:window-y="25"
     inkscape:window-maximized="0">
    <inkscape:grid
       type="xygrid"
       id="grid833"
       spacingx="0.21166667"
       spacingy="0.21166667"
       empcolor="#000000"
       empopacity="0.25098039"
       color="#000000"
       opacity="0.1254902" />
  </sodipodi:namedview>
  <metadata
     id="metadata5">
    <rdf:RDF>
      <cc:Work
         rdf:about="">
        <dc:format>image/svg+xml</dc:format>
        <dc:type
           rdf:resource="http://purl.org/dc/dcmitype/StillImage" />
        <dc:title></dc:title>
      </cc:Work>
    </rdf:RDF>
  </metadata>
  <g
     inkscape:label="Ebene 1"
     inkscape:groupmode="layer"
     id="layer1">
    <path
       id="path837"
       style="fill:#eeeeee;stroke-width:1.75748"
       d="M 24 17.599609 A 12 12 0 0 0 12 29.599609 A 12 12 0 0 0 24 41.599609 A 12 12 0 0 0 36 29.599609 A 12 12 0 0 0 24 17.599609 z M 32.876953 30.023438 C 33.204257 30.046204 33.47421 30.153101 33.599609 30.400391 C 34.503103 32.182098 32.864858 34.638339 31.460938 36.105469 C 29.623824 38.025298 26.544566 40.373316 24.007812 39.384766 C 23.290309 39.105164 23.418827 38.632839 23.681641 37.945312 C 24.465688 35.894205 26.537018 36.077539 28.095703 34.464844 C 29.204034 33.318107 29.657635 30.948598 31.179688 30.355469 C 31.628127 30.180716 32.331447 29.985494 32.876953 30.023438 z "
       transform="scale(0.26458333)" />
    <path
       style="fill:none;stroke:none;stroke-width:0.264583px;stroke-linecap:butt;stroke-linejoin:miter;stroke-opacity:1"
       d="M 3.175,8.4666668 6.3499999,1.0583333 9.5250001,8.4666668 Z"
       id="path839" />
    <path
       style="fill:#eeeeee;fill-opacity:1;stroke:none;stroke-width:0.232055px;stroke-linecap:butt;stroke-linejoin:miter;stroke-opacity:1"
       d="M 3.8099999,5.9266668 H 8.8900001 L 6.3499998,1.6933336 Z"
       id="path841">
      <path
         id="path904"
         style="fill:#ff04ff;fill-opacity:1;stroke:none;stroke-width:0.465"
         d="m 8.0924819,8.0597162 a 0.63499999,1.27 0 0 1 -0.635,1.27 0.63499999,1.27 0 0 1 -0.635,-1.27 0.63499999,1.27 0 0 1 0.635,-1.27 0.63499999,1.27 0 0 1 0.635,1.27 z" />
    </path>
  </g>
</svg>
